HIERARCHY
ROOT Hips
{
	OFFSET 0.000000 0.000000 0.000000
	CHANNELS 6 Xposition Yposition Zposition Zrotation Yrotation Xrotation 
	JOINT LHipJoint
	{
		OFFSET 0.000000 0.000000 0.000000
		CHANNELS 3 Zrotation Yrotation Xrotation
		JOINT LeftUpLeg
		{
			OFFSET 1.363060 -1.794630 0.839290
			CHANNELS 3 Zrotation Yrotation Xrotation
			JOINT LeftLeg
			{
				OFFSET 2.448110 -6.726130 0.000000
				CHANNELS 3 Zrotation Yrotation Xrotation
				JOINT LeftFoot
				{
					OFFSET 2.562200 -7.039590 0.000000
					CHANNELS 3 Zrotation Yrotation Xrotation
					JOINT LeftToeBase
					{
						OFFSET 0.157640 -0.433110 2.322550
						CHANNELS 3 Zrotation Yrotation Xrotation
						End Site
						{
							OFFSET 0.000000 0.000000 0.000000
						}
					}
				}
			}
		}
	}
	JOINT RHipJoint
	{
		OFFSET 0.000000 0.000000 0.000000
		CHANNELS 3 Zrotation Yrotation Xrotation
		JOINT RightUpLeg
		{
			OFFSET -1.305520 -1.794630 0.839290
			CHANNELS 3 Zrotation Yrotation Xrotation
			JOINT RightLeg
			{
				OFFSET -2.542530 -6.985550 0.000000
				CHANNELS 3 Zrotation Yrotation Xrotation
				JOINT RightFoot
				{
					OFFSET -2.568260 -7.056230 0.000000
					CHANNELS 3 Zrotation Yrotation Xrotation
					JOINT RightToeBase
					{
						OFFSET -0.164730 -0.452590 2.363150
						CHANNELS 3 Zrotation Yrotation Xrotation
						End Site
						{
							OFFSET 0.000000 0.000000 0.000000
						}
					}
				}
			}
		}
	}
	JOINT LowerBack
	{
		OFFSET 0.000000 0.000000 0.000000
		CHANNELS 3 Zrotation Yrotation Xrotation
		JOINT Spine
		{
			OFFSET 0.028270 2.035590 -0.193380
			CHANNELS 3 Zrotation Yrotation Xrotation
			JOINT Spine1
			{
				OFFSET 0.056720 2.048850 -0.042750
				CHANNELS 3 Zrotation Yrotation Xrotation
				JOINT Neck
				{
					OFFSET 0.000000 0.000000 0.000000
					CHANNELS 3 Zrotation Yrotation Xrotation
					JOINT Neck1
					{
						OFFSET -0.054170 1.746240 0.172020
						CHANNELS 3 Zrotation Yrotation Xrotation
						JOINT Head
						{
							OFFSET 0.104070 1.761360 -0.123970
							CHANNELS 3 Zrotation Yrotation Xrotation
							End Site
							{
								OFFSET 0.000000 0.000000 0.000000
							}
						}
					}
				}
				JOINT LeftShoulder
				{
					OFFSET 0.000000 0.000000 0.000000
					CHANNELS 3 Zrotation Yrotation Xrotation
					JOINT LeftArm
					{
						OFFSET 3.362410 1.200890 -0.311210
						CHANNELS 3 Zrotation Yrotation Xrotation
						JOINT LeftForeArm
						{
							OFFSET 4.983000 -0.000000 -0.000000
							CHANNELS 3 Zrotation Yrotation Xrotation
							JOINT LeftHand
							{
								OFFSET 3.483560 -0.000000 -0.000000
								CHANNELS 3 Zrotation Yrotation Xrotation
								JOINT LeftFingerBase
								{
									OFFSET 0.000000 0.000000 0.000000
									CHANNELS 3 Zrotation Yrotation Xrotation
									JOINT LeftHandIndex1
									{
										OFFSET 0.715260 -0.000000 -0.000000
										CHANNELS 3 Zrotation Yrotation Xrotation
										End Site
										{
											OFFSET 0.000000 0.000000 0.000000
										}
									}
								}
								JOINT LThumb
								{
									OFFSET 0.000000 0.000000 0.000000
									CHANNELS 3 Zrotation Yrotation Xrotation
									End Site
									{
										OFFSET 0.000000 0.000000 0.000000
									}
								}
							}
						}
					}
				}
				JOINT RightShoulder
				{
					OFFSET 0.000000 0.000000 0.000000
					CHANNELS 3 Zrotation Yrotation Xrotation
					JOINT RightArm
					{
						OFFSET -3.136600 1.374050 -0.404650
						CHANNELS 3 Zrotation Yrotation Xrotation
						JOINT RightForeArm
						{
							OFFSET -5.241900 -0.000000 -0.000000
							CHANNELS 3 Zrotation Yrotation Xrotation
							JOINT RightHand
							{
								OFFSET -3.444170 -0.000000 -0.000000
								CHANNELS 3 Zrotation Yrotation Xrotation
								JOINT RightFingerBase
								{
									OFFSET 0.000000 0.000000 0.000000
									CHANNELS 3 Zrotation Yrotation Xrotation
									JOINT RightHandIndex1
									{
										OFFSET -0.622530 -0.000000 -0.000000
										CHANNELS 3 Zrotation Yrotation Xrotation
										End Site
										{
											OFFSET 0.000000 0.000000 0.000000
										}
									}
								}
								JOINT RThumb
								{
									OFFSET 0.000000 0.000000 0.000000
									CHANNELS 3 Zrotation Yrotation Xrotation
									End Site
									{
										OFFSET 0.000000 0.000000 0.000000
									}
								}
							}
						}
					}
				}
			}
		}
	}
}
MOTION
Frames: 11
Frame Time: 0.033333
0.432987 17.736065 -21.518761 -4.694544 -1.287232 4.588386 -15.397488 1.622658 4.667184 -0.011266 7.600007 -23.350434 -2.870862 -11.090569 -9.855130 -1.230078 16.466348 31.763657 -0.016114 0.165244 -26.899219 15.387321 -3.971563 4.691361 1.411165 -10.789825 -5.032083 1.420060 1.840119 17.622276 0.313798 2.153835 9.443471 0.223091 -0.010354 -64.695891 1.249307 -2.271852 -1.851378 -3.278688 1.960196 -3.478829 -6.321893 0.282940 3.365407 9.566729 -9.450812 -11.750630 -2.367461 -0.281378 -1.043551 -0.008060 -0.055362 0.035153 -4.849975 24.748535 4.481053 -67.118581 4.174191 -8.608777 -5.228162 -12.397707 -0.265337 0.881734 7.744101 0.094808 -0.269859 -0.080668 -0.015662 -0.104539 -0.004721 -0.038092 0.101289 -0.002408 -0.012820 13.105280 -4.751832 1.199710 59.146358 13.584665 2.708443 2.966599 35.154068 0.400378 3.207170 6.366242 0.138071 -0.087280 -0.230834 -0.032616 0.039011 0.035420 -0.111952 -0.044291 0.042015 0.005634 
0.526590 17.861134 -20.947147 -4.352481 0.607619 4.478695 -15.728498 1.385262 4.499237 0.062400 6.956714 -22.624173 -3.610438 -9.974474 -6.656494 -0.493100 13.149816 29.094680 -0.543053 0.154698 -26.971534 14.530606 -2.043247 5.270331 1.119194 -7.200456 -9.343271 2.616183 1.231922 29.523952 -0.144441 -0.186903 22.356331 0.322383 -0.093303 -62.493152 0.123965 -5.112471 -3.139270 -2.376746 0.833847 -3.898913 -6.747171 0.880501 4.196122 10.054365 -9.349865 -11.047875 -2.635261 -0.311021 -0.830936 -0.007024 -0.049348 0.038615 -5.537085 22.864841 4.186326 -64.241535 -0.223865 -7.955725 -4.949147 -10.121918 -0.135307 1.481229 7.260145 0.128569 -0.283213 -0.169774 -0.011942 -0.090729 -0.015690 -0.032118 0.100548 -0.006552 -0.000888 17.124221 -4.939047 3.803670 58.962402 11.311232 3.499034 0.281602 34.299840 -1.084841 3.268655 6.756844 0.130840 -0.102457 -0.231495 -0.036468 0.052509 0.028572 -0.113712 -0.046837 0.041083 -0.002031 
0.628488 17.974608 -20.434872 -3.382415 0.855162 4.595421 -16.774669 1.617064 3.678403 -0.035768 5.203222 -21.368034 -2.543957 -8.497905 -3.559861 0.140869 11.492315 25.800143 -1.245493 0.108195 -28.345209 13.853913 -1.157419 4.963214 0.098381 -5.175778 -17.783981 3.279324 -2.319750 45.197158 -1.526714 -8.257753 34.091092 0.105660 -0.161510 -55.482460 -1.165682 -7.090100 -4.810187 -2.771086 1.086696 -3.384602 -7.232903 0.458117 3.723616 10.405517 -8.892687 -9.836582 -3.042163 -0.327086 -0.468849 -0.007280 -0.026336 0.052092 -5.874659 21.073249 3.688822 -59.845513 -4.197417 -7.567155 -4.021710 -8.282159 -0.435287 3.001936 6.266318 0.198907 -0.165830 -0.211574 -0.011918 -0.070646 -0.015076 -0.033323 0.090589 0.005469 0.000148 20.764284 -6.069121 7.738652 60.489833 10.167348 1.921310 -0.716247 29.749878 -2.190821 2.881961 6.704719 0.125267 -0.100274 -0.112040 -0.046747 0.068357 0.029347 -0.121590 -0.047728 0.046060 -0.018125 
0.736216 18.076199 -19.967505 -2.526806 1.150408 4.693378 -18.232918 2.458305 2.810892 -0.157646 4.053784 -19.756311 -1.198889 -9.739907 -1.328859 -0.228924 12.241514 22.949916 -1.797770 0.105461 -28.946367 13.493310 -0.183990 4.528229 0.180782 -6.517675 -28.978953 0.857995 -3.822242 60.928171 -1.031019 -15.735003 38.192547 -0.045111 -0.144777 -48.086898 -1.994278 -7.793971 -4.672281 -2.622001 1.533459 -3.406781 -8.616077 0.286105 2.720400 11.710888 -8.861235 -9.110276 -3.322521 -0.336716 -0.358895 -0.011704 -0.012711 0.055491 -5.759680 19.600487 4.312827 -57.121821 -8.926038 -6.271839 -3.848282 -8.337050 -0.052820 3.942995 5.706605 0.224973 -0.061615 -0.162603 -0.007473 -0.051502 -0.010057 -0.038178 0.081413 0.014617 -0.000089 22.986824 -8.252523 10.822562 62.800039 8.858113 -0.243359 -1.106244 23.462937 -2.346076 2.008902 6.076075 0.046494 -0.086946 -0.173686 -0.048617 0.076078 0.029218 -0.127733 -0.050127 0.070728 -0.033813 
0.857304 18.169560 -19.524054 -2.766932 2.261864 3.601268 -18.650585 2.087109 4.033002 0.770078 3.646935 -17.867145 -1.231365 -10.143662 -1.078146 -0.514630 12.886856 21.189424 -1.966080 0.054842 -29.980452 13.263729 0.103787 5.364699 2.744480 -8.137503 -40.296875 -3.762445 -5.365481 71.849070 0.266152 -21.732840 26.804673 0.019883 -0.092307 -40.376854 -0.517271 -6.215706 -4.186895 -2.823927 0.564532 -3.338118 -9.125027 -0.315193 3.132292 12.058968 -9.344617 -8.365859 -3.498556 -0.329989 -0.183720 -0.012254 -0.003294 0.048911 -5.920517 17.407567 4.431039 -53.968751 -11.680637 -5.088390 -4.800707 -11.169620 0.246956 4.209430 4.963424 0.199897 -0.139201 -0.100308 -0.007834 -0.037601 0.003590 -0.040546 0.068343 0.016301 -0.006900 23.250980 -8.600063 11.725150 65.247041 6.576319 -3.323459 -1.000420 17.368155 -1.613164 0.849478 5.491396 -0.026206 -0.052509 -0.031055 -0.041515 0.072263 0.028403 -0.136207 -0.043367 0.094683 -0.049427 
0.985838 18.247464 -19.091787 -3.809919 3.489409 3.733539 -18.344582 2.581944 4.923699 2.088139 2.739721 -15.940426 -1.984437 -11.495801 -3.146808 -1.224164 14.199528 20.611392 -1.939109 0.056176 -30.480925 13.087376 0.003218 5.993405 5.703139 -7.584283 -51.303004 -4.147119 -6.533183 77.077824 -1.266435 -18.064719 4.748657 0.319850 -0.091534 -34.996970 2.429165 -7.389259 -5.884853 -3.379358 0.949031 -2.792227 -8.975315 -0.828885 3.094493 13.733066 -9.681022 -8.288482 -3.325151 -0.309233 -0.422993 -0.012694 0.003962 0.032638 -4.988993 16.569387 4.277689 -50.497906 -14.102632 -5.873083 -6.516873 -15.556345 1.408037 4.171825 4.255352 0.168788 -0.173650 -0.142040 -0.008699 -0.031439 0.000686 -0.046013 0.059045 0.010736 -0.012358 23.008768 -8.267897 10.655554 67.841332 3.058050 -5.589902 -0.073315 11.768771 -0.817010 0.142619 4.675349 -0.072576 -0.005219 0.013370 -0.032403 0.075628 0.018833 -0.143394 -0.037734 0.117090 -0.058867 
1.108451 18.299000 -18.664450 -4.852203 4.035027 3.174428 -18.009900 3.459016 5.769622 2.792173 1.607585 -14.683829 -1.737534 -11.742677 -3.107120 -1.738058 14.545895 18.953960 -1.793777 0.039929 -30.373911 12.150684 0.862945 6.972202 8.879177 -6.082910 -57.906723 -2.478614 -5.364216 74.894680 -3.316688 -14.729529 -7.961556 0.614523 -0.102214 -31.320054 4.135357 -7.354769 -4.764394 -3.704513 1.112189 -3.462388 -8.726332 -1.087964 3.510868 13.337526 -10.362880 -7.625491 -3.359857 -0.304267 -0.418621 -0.005425 0.007506 0.024134 -4.574458 14.995623 3.767168 -46.393004 -16.146778 -5.811056 -6.462581 -20.748173 1.582885 4.635695 3.162650 0.123736 -0.264121 -0.117355 -0.019871 -0.033086 0.001402 -0.043966 0.044837 0.009393 -0.012944 22.124773 -8.460137 8.828517 70.720558 -1.224338 -7.394461 1.211818 7.903216 -0.334181 -0.077916 4.133566 -0.068492 0.056686 0.149398 -0.029031 0.076602 0.003849 -0.153312 -0.022386 0.124246 -0.056198 
1.222834 18.321362 -18.232443 -6.199716 5.492316 3.061451 -17.192452 3.902475 6.129040 3.648246 1.198552 -14.272027 -2.839958 -12.176187 -1.705701 -1.207353 13.296309 17.303453 -1.753531 0.052255 -30.511118 11.664767 0.629685 7.507693 11.221171 -5.129092 -59.987499 -1.246395 -3.789418 67.147058 -3.212512 -13.201152 -11.499358 0.887123 -0.076093 -30.498460 5.254128 -7.531178 -4.435530 -3.101226 1.265945 -2.755027 -8.356438 -1.179122 2.960119 13.173719 -11.106257 -7.769781 -3.412157 -0.333203 -0.256230 0.000596 0.013750 0.010478 -2.870117 11.623747 3.963833 -42.361476 -16.498525 -6.139879 -7.489285 -24.920155 1.812624 4.830375 2.148639 0.079040 -0.314221 -0.086693 -0.034562 -0.035904 -0.005082 -0.045433 0.038737 0.007656 -0.008168 21.693379 -10.779705 6.899048 71.353395 -5.048749 -9.456615 2.108065 6.553938 -0.163909 0.306322 3.597407 -0.044596 0.128614 0.209754 -0.028331 0.081705 -0.011509 -0.159396 -0.005427 0.131365 -0.053441 
1.332379 18.321038 -17.783588 -6.566839 5.720678 3.440098 -16.698972 3.258521 7.010848 3.606239 1.950045 -14.981160 -3.748342 -12.150796 0.327411 -1.171476 12.643029 14.679997 -1.508105 0.151185 -29.533442 10.736148 0.831698 7.524372 12.895235 -3.900939 -58.261383 -0.518813 -1.986313 55.819371 -3.372992 -11.620254 -14.025869 1.221970 -0.154302 -30.947990 5.696295 -7.541604 -4.085466 -1.793702 0.064174 -2.456184 -7.949486 -1.234363 2.529009 12.734165 -12.273343 -8.054178 -3.211948 -0.315230 -0.337444 0.017901 0.005977 -0.000044 -0.400523 9.568729 3.214037 -39.719428 -16.474050 -6.589691 -7.491372 -26.993293 1.626666 4.974701 1.190241 0.037143 -0.383296 -0.060424 -0.032650 -0.046202 -0.008233 -0.040624 0.037816 0.023158 -0.011920 19.873666 -12.629672 5.322185 70.873858 -6.793760 -9.903899 2.816626 7.360043 -0.255605 0.530518 3.316399 -0.029294 0.133109 0.227085 -0.029751 0.087718 -0.020814 -0.166211 0.016775 0.116974 -0.049631 
1.430140 18.305767 -17.312862 -7.174705 5.200989 2.964715 -15.829726 3.070498 8.395987 3.369943 3.084801 -16.672684 -5.058608 -11.686329 4.648947 -0.899271 11.668285 11.047174 -1.345453 0.217852 -28.537595 10.584120 0.116780 7.718269 13.755477 -3.734830 -52.947136 0.879017 -0.506191 42.737652 -3.548517 -9.139039 -16.983879 1.691660 -0.266707 -32.688114 6.459134 -7.680995 -2.551284 -2.343452 -0.096929 -2.408760 -6.536090 -2.734161 2.819313 12.345630 -13.289213 -7.889529 -3.094169 -0.299490 -0.201970 0.034908 -0.002770 -0.007813 1.632803 7.276632 2.041964 -38.311029 -14.070173 -6.597731 -6.756825 -27.889538 1.026383 5.137091 0.226616 -0.015513 -0.437002 -0.016290 -0.030577 -0.055778 -0.008866 -0.035180 0.038664 0.039468 -0.016112 18.972105 -12.520981 2.152315 69.698749 -9.538108 -10.732791 3.998559 10.113928 -0.310909 1.051204 3.159216 -0.004324 0.132983 0.236276 -0.037301 0.102349 -0.029721 -0.175359 0.040998 0.094849 -0.053559 
1.504613 18.279509 -16.824223 -6.861466 3.490078 2.190414 -15.145134 1.956895 9.660442 2.472145 4.726759 -19.237058 -6.855367 -9.478640 12.056313 -1.061867 11.288823 6.355602 -1.438243 0.348069 -26.265101 10.485414 -0.368253 6.244142 13.133459 -4.238459 -45.055166 1.867851 0.529249 32.000473 -3.673410 -6.636818 -19.308887 1.890454 -0.296524 -35.309801 5.969697 -5.515418 -1.236099 -1.774906 -2.493716 -2.111645 -5.310316 -3.666452 2.329012 12.340326 -14.274999 -8.716731 -2.918464 -0.268788 -0.358021 0.050978 -0.012356 -0.020512 3.379607 6.388017 0.157774 -39.384120 -10.568222 -4.426713 -4.759440 -26.396043 0.091168 5.226704 -0.329154 -0.019541 -0.344806 -0.058948 -0.021033 -0.068405 -0.016623 -0.032561 0.055964 0.060332 -0.018298 18.031618 -11.242929 -0.633846 68.385130 -10.971645 -10.548418 4.644829 13.575518 -0.413467 0.937069 3.056485 0.007592 0.109815 0.217023 -0.044772 0.100004 -0.025958 -0.166315 0.056743 0.078979 -0.045416 
